<svg xmlns="http://www.w3.org/2000/svg" version="1.1" viewBox="0 0 11 11 ">
<style type="text/css" >
     <![CDATA[
      rect.pixel {
          fill:   #ff0000;
      }
    ]]>
  </style>

   <rect width="11" height="11" fill="rgb(128, 128, 128)"/>
   <rect x="1" y="1" width="9.1" height="9.1" fill="rgb(255, 255, 255)"/>

  <rect class="pixel" x="1" y="1" width=".9" height=".9"/>
  <rect class="pixel" x="2" y="1" width=".9" height=".9"/>
  <rect class="pixel" x="2" y="2" width=".9" height=".9"/>
  <rect class="pixel" x="1" y="2" width=".9" height=".9"/>
  <rect class="pixel" x="3" y="2" width=".9" height=".9"/>
  <rect class="pixel" x="3" y="3" width=".9" height=".9"/>
  <rect class="pixel" x="2" y="3" width=".9" height=".9"/>
  <rect class="pixel" x="4" y="3" width=".9" height=".9"/>
  <rect class="pixel" x="4" y="4" width=".9" height=".9"/>
  <rect class="pixel" x="3" y="4" width=".9" height=".9"/>
  <rect class="pixel" x="5" y="4" width=".9" height=".9"/>
  <rect class="pixel" x="5" y="5" width=".9" height=".9"/>
  <rect class="pixel" x="4" y="5" width=".9" height=".9"/>
  <rect class="pixel" x="6" y="5" width=".9" height=".9"/>
  <rect class="pixel" x="6" y="6" width=".9" height=".9"/>
  <rect class="pixel" x="5" y="6" width=".9" height=".9"/>
  <rect class="pixel" x="7" y="6" width=".9" height=".9"/>
  <rect class="pixel" x="7" y="7" width=".9" height=".9"/>
  <rect class="pixel" x="6" y="7" width=".9" height=".9"/>
  <rect class="pixel" x="8" y="7" width=".9" height=".9"/>
  <rect class="pixel" x="8" y="8" width=".9" height=".9"/>
  <rect class="pixel" x="7" y="8" width=".9" height=".9"/>
  <rect class="pixel" x="9" y="8" width=".9" height=".9"/>
  <rect class="pixel" x="9" y="9" width=".9" height=".9"/>
  <rect class="pixel" x="8" y="9" width=".9" height=".9"/>
</svg>
