<svg xmlns="http://www.w3.org/2000/svg" version="1.1" viewBox="0 0 19 19 ">
<style type="text/css" >
     <![CDATA[
      rect.pixel {
          fill:   #ff0000;
      }
    ]]>
  </style>

   <rect width="19" height="19" fill="rgb(128, 128, 128)"/>
   <rect x="1" y="1" width="17.1" height="17.1" fill="rgb(255, 255, 255)"/>

  <rect class="pixel" x="1" y="1" width=".9" height=".9"/>
  <rect class="pixel" x="2" y="1" width=".9" height=".9"/>
  <rect class="pixel" x="2" y="2" width=".9" height=".9"/>
  <rect class="pixel" x="1" y="2" width=".9" height=".9"/>
  <rect class="pixel" x="3" y="2" width=".9" height=".9"/>
  <rect class="pixel" x="3" y="3" width=".9" height=".9"/>
  <rect class="pixel" x="2" y="3" width=".9" height=".9"/>
  <rect class="pixel" x="4" y="3" width=".9" height=".9"/>
  <rect class="pixel" x="4" y="4" width=".9" height=".9"/>
  <rect class="pixel" x="3" y="4" width=".9" height=".9"/>
  <rect class="pixel" x="5" y="4" width=".9" height=".9"/>
  <rect class="pixel" x="5" y="5" width=".9" height=".9"/>
  <rect class="pixel" x="4" y="5" width=".9" height=".9"/>
  <rect class="pixel" x="6" y="5" width=".9" height=".9"/>
  <rect class="pixel" x="6" y="6" width=".9" height=".9"/>
  <rect class="pixel" x="5" y="6" width=".9" height=".9"/>
  <rect class="pixel" x="7" y="6" width=".9" height=".9"/>
  <rect class="pixel" x="7" y="7" width=".9" height=".9"/>
  <rect class="pixel" x="6" y="7" width=".9" height=".9"/>
  <rect class="pixel" x="8" y="7" width=".9" height=".9"/>
  <rect class="pixel" x="8" y="8" width=".9" height=".9"/>
  <rect class="pixel" x="7" y="8" width=".9" height=".9"/>
  <rect class="pixel" x="9" y="8" width=".9" height=".9"/>
  <rect class="pixel" x="9" y="9" width=".9" height=".9"/>
  <rect class="pixel" x="8" y="9" width=".9" height=".9"/>
  <rect class="pixel" x="10" y="9" width=".9" height=".9"/>
  <rect class="pixel" x="10" y="10" width=".9" height=".9"/>
  <rect class="pixel" x="9" y="10" width=".9" height=".9"/>
  <rect class="pixel" x="11" y="10" width=".9" height=".9"/>
  <rect class="pixel" x="11" y="11" width=".9" height=".9"/>
  <rect class="pixel" x="10" y="11" width=".9" height=".9"/>
  <rect class="pixel" x="12" y="11" width=".9" height=".9"/>
  <rect class="pixel" x="12" y="12" width=".9" height=".9"/>
  <rect class="pixel" x="11" y="12" width=".9" height=".9"/>
  <rect class="pixel" x="13" y="12" width=".9" height=".9"/>
  <rect class="pixel" x="13" y="13" width=".9" height=".9"/>
  <rect class="pixel" x="12" y="13" width=".9" height=".9"/>
  <rect class="pixel" x="14" y="13" width=".9" height=".9"/>
  <rect class="pixel" x="14" y="14" width=".9" height=".9"/>
  <rect class="pixel" x="13" y="14" width=".9" height=".9"/>
  <rect class="pixel" x="15" y="14" width=".9" height=".9"/>
  <rect class="pixel" x="15" y="15" width=".9" height=".9"/>
  <rect class="pixel" x="14" y="15" width=".9" height=".9"/>
  <rect class="pixel" x="16" y="15" width=".9" height=".9"/>
  <rect class="pixel" x="16" y="16" width=".9" height=".9"/>
  <rect class="pixel" x="15" y="16" width=".9" height=".9"/>
  <rect class="pixel" x="17" y="16" width=".9" height=".9"/>
  <rect class="pixel" x="17" y="17" width=".9" height=".9"/>
  <rect class="pixel" x="16" y="17" width=".9" height=".9"/>
</svg>
